<svg width="272" height="272" viewBox="0 0 272 272" fill="none" xmlns="http://www.w3.org/2000/svg">
<path d="M64.9631 241.925C64.2697 241.231 63.8999 240.353 63.8999 239.336V32.7063C63.8999 31.6893 64.2697 30.8111 64.9631 30.1177C65.7027 29.4243 66.5348 29.0545 67.5517 29.0545H103.331C104.348 29.0545 105.226 29.4243 105.919 30.1177C106.613 30.8111 106.982 31.6893 106.982 32.7063V204.482C106.982 205.499 107.491 206.007 108.508 206.007H208.448C209.465 206.007 210.344 206.377 211.037 207.07C211.73 207.764 212.1 208.642 212.1 209.659V239.29C212.1 240.307 211.73 241.185 211.037 241.878C210.344 242.618 209.465 242.942 208.448 242.942H67.5517C66.5348 242.988 65.7027 242.618 64.9631 241.925Z" fill="black"/>
</svg>
